<svg xmlns="http://www.w3.org/2000/svg" viewBox="0 0 1440 320">
  <path fill="#7cc988" fill-opacity="0.8" d="M0,224L24,229.3C48,235,96,245,144,229.3C192,213,240,171,288,144C336,117,384,107,432,128C480,149,528,203,576,192C624,181,672,107,720,69.3C768,32,816,32,864,58.7C912,85,960,139,1008,170.7C1056,203,1104,213,1152,192C1200,171,1248,117,1296,133.3C1344,149,1392,235,1416,277.3L1440,320L1440,320L1416,320C1392,320,1344,320,1296,320C1248,320,1200,320,1152,320C1104,320,1056,320,1008,320C960,320,912,320,864,320C816,320,768,320,720,320C672,320,624,320,576,320C528,320,480,320,432,320C384,320,336,320,288,320C240,320,192,320,144,320C96,320,48,320,24,320L0,320Z"></path>
</svg>
